Coordinates																		
version=1																		
nRows=53																		
nColumns=19																		
inDegrees=yes																		
																		
"Units are S.I. units (second, meters, Newtons, ...)"																		
"If the header above contains a line with 'inDegrees', this indicates whether rotational values are in degrees (yes) or radians (no)."																		
																		
endheader																		
time	pelvis_tilt_global	pelvis_list_global	pelvis_rotation_global	pelvis_tx_global	pelvis_ty_global	pelvis_tz_global	hip_flexion_r	hip_adduction_r	hip_rotation_r	knee_flexion_r	ankle_dorsiflexion_r	hip_flexion_l	hip_adduction_l	hip_rotation_l	knee_flexion_l	ankle_dorsiflexion_l	pelvis_tilt	pelvis_rotation
2.42	-13.93188063	0	0	0.95048725	0.55555836	-0.34686169	29.0447139	0	0	-95.83366813	-0.22590819	35.3609058	0	0	-43.00419267	20.33876771	0.94688168	0
2.43	-14.01447441	0	0	0.9488986	0.55450833	-0.34601498	32.03800606	0	0	-97.27284169	1.08023757	33.53234254	0	0	-43.02619837	22.16437278	0.91901736	0
2.44	-14.09010727	0	0	0.9478634	0.55506321	-0.34548331	34.87524346	0	0	-98.01381587	2.28681674	31.28453773	0	0	-42.2892624	23.42639686	0.94711556	0
2.45	-14.1650595	0	0	0.94746433	0.55705927	-0.3450172	37.52041133	0	0	-98.03135703	3.33877339	28.61326598	0	0	-40.76629665	24.19833365	1.09339637	0
2.46	-14.25108298	0	0	0.94767081	0.5603556	-0.34440045	39.9536926	0	0	-97.3278101	4.22113716	25.59013903	0	0	-38.54883311	24.47304625	1.39221443	0
2.47	-14.36301389	0	0	0.94841843	0.56480671	-0.3436731	42.14134307	0	0	-95.93244321	4.99053641	22.35041179	0	0	-35.83735035	24.05813572	1.84233401	0
2.48	-14.50942448	0	0	0.94968623	0.57022836	-0.34299887	44.03802801	0	0	-93.88989807	5.744619	19.02300354	0	0	-32.83606476	22.70929366	2.42259925	0
2.49	-14.69784666	0	0	0.95145729	0.57639213	-0.34241222	45.6223452	0	0	-91.24328451	6.54754774	15.71835912	0	0	-29.70963349	20.32445176	3.11452628	0
2.5	-14.9431949	0	0	0.95362993	0.58304612	-0.34177319	46.92351933	0	0	-88.03054054	7.35407952	12.55564734	0	0	-26.6078533	17.00196924	3.9029474	0
2.51	-15.24829436	0	0	0.95603392	0.58995159	-0.34092808	47.98837634	0	0	-84.29589473	8.04231684	9.63826722	0	0	-23.67624763	12.96814472	4.7503379	0
2.52	-15.58114799	0	0	0.95852738	0.59692174	-0.33985433	48.82044494	0	0	-80.09280868	8.53542186	6.99376932	0	0	-21.01903514	8.46426252	5.58428907	0
2.53	-15.88021919	0	0	0.96104343	0.60384727	-0.33865441	49.35284823	0	0	-75.46019731	8.88046736	4.56703766	0	0	-18.6858191	3.70859523	6.31090714	0
2.54	-16.10404087	0	0	0.96353874	0.6106589	-0.33746416	49.50643273	0	0	-70.40036768	9.17341837	2.30318162	0	0	-16.70198979	-1.11976577	6.87136473	0
2.55	-16.24369447	0	0	0.96595192	0.61726891	-0.33636454	49.24517686	0	0	-64.90241609	9.42990148	0.19426182	0	0	-15.08777521	-5.88687376	7.25689413	0
2.56	-16.30783997	0	0	0.96822806	0.62351506	-0.33535088	48.59046795	0	0	-58.98650078	9.54825522	-1.72538132	0	0	-13.86408928	-10.46760356	7.49660553	0
2.57	-16.30938614	0	0	0.97035934	0.62916774	-0.33436606	47.59667005	0	0	-52.72470382	9.39857129	-3.38733618	0	0	-13.09685449	-14.69343853	7.63904131	0
2.58	-16.25451652	0	0	0.97237633	0.63400813	-0.3333766	46.30897819	0	0	-46.22099249	8.92475519	-4.70302367	0	0	-12.94782634	-18.32854	7.72309097	0
2.59	-16.1599671	0	0	0.97426009	0.6378635	-0.33244683	44.77442346	0	0	-39.59264215	8.1792846	-5.55601398	0	0	-13.68087018	-21.08236654	7.77842453	0
2.6	-16.02340494	0	0	0.97588545	0.64065836	-0.33171448	43.02513818	0	0	-32.97511636	7.31182049	-5.88589386	0	0	-15.52797351	-22.67603128	7.77716993	0
2.61	-15.83111603	0	0	0.9770534	0.64237136	-0.33129206	41.13349158	0	0	-26.5889126	6.50945344	-5.72709988	0	0	-18.51369138	-22.98991709	7.65631697	0
2.62	-15.5370132	0	0	0.97768669	0.64305874	-0.33118964	39.21390545	0	0	-20.80721666	5.92049985	-5.23632708	0	0	-22.39699402	-22.21029172	7.33183312	0
2.63	-15.10659291	0	0	0.97792843	0.64281974	-0.33132658	37.4347998	0	0	-16.11890688	5.59980766	-4.56944489	0	0	-26.87037272	-20.75707435	6.77363564	0
2.64	-14.54276757	0	0	0.9780473	0.64174741	-0.3316165	35.921809	0	0	-12.89257416	5.52591373	-3.79425319	0	0	-31.74740632	-19.05028665	6.01982209	0
2.65	-13.89587838	0	0	0.97818975	0.63983349	-0.33199381	34.71266799	0	0	-11.17513387	5.67083944	-2.86368195	0	0	-37.00673398	-17.31800943	5.149755	0
2.66	-13.28000942	0	0	0.97821855	0.63689387	-0.33237134	33.81249591	0	0	-10.70114267	6.02935108	-1.6324288	0	0	-42.67825898	-15.6264891	4.28913411	0
2.67	-12.82609971	0	0	0.97783595	0.63267444	-0.33260584	33.21562123	0	0	-11.06316712	6.47556119	0.05124079	0	0	-48.71222234	-14.02577472	3.57442735	0
2.68	-12.62362689	0	0	0.97687675	0.62700334	-0.33258829	32.93015692	0	0	-11.97974541	6.5566834	2.25660963	0	0	-54.93973742	-12.5942596	3.12153367	0
2.69	-12.62264706	0	0	0.97552739	0.61996791	-0.33233876	32.90327268	0	0	-13.4277407	5.70445406	4.84668235	0	0	-61.11817665	-11.32568694	2.91655008	0
2.7	-12.69097767	0	0	0.97410738	0.61187221	-0.331941	33.06343643	0	0	-15.56501484	3.93218349	7.58328383	0	0	-67.05907799	-10.05465924	2.83964936	0
2.71	-12.74865105	0	0	0.9726194	0.60308972	-0.33141559	33.42931705	0	0	-18.57825978	2.34249369	10.34038048	0	0	-72.71747165	-8.56933332	2.76492781	0
2.72	-12.8183444	0	0	0.9706163	0.59399728	-0.33074509	34.11803566	0	0	-22.55743992	2.45022851	13.18534524	0	0	-78.14833087	-6.81564075	2.61984035	0
2.73	-12.92467668	0	0	0.96765735	0.58503533	-0.33005142	35.14346633	0	0	-27.32916538	4.71398851	16.21679239	0	0	-83.35567251	-4.95923585	2.34842761	0
2.74	-13.007091	0	0	0.96383344	0.57672343	-0.32962943	36.21025882	0	0	-32.31512268	8.17166634	19.39989864	0	0	-88.19390561	-3.23715419	1.894551	0
2.75	-13.00034935	0	0	0.95971394	0.56951698	-0.32966579	36.85381411	0	0	-36.73221962	11.57554329	22.63255976	0	0	-92.43310441	-1.7603108	1.29081827	0
2.76	-12.91756768	0	0	0.95589179	0.56371073	-0.32995173	36.76513348	0	0	-40.0284262	14.41038605	25.85284489	0	0	-95.88885752	-0.46538865	0.66488757	0
2.77	-12.82649727	0	0	0.95267057	0.55946309	-0.33004888	35.93857372	0	0	-42.09783702	16.80071118	29.05431827	0	0	-98.49435925	0.74159174	0.1382058	0
2.78	-12.72385028	0	0	0.95011175	0.55694034	-0.3297436	34.47868965	0	0	-43.11753151	18.91302834	32.17067377	0	0	-100.2649151	1.83897435	-0.31353159	0
2.79	-12.56506658	0	0	0.94819522	0.5562126	-0.32926644	32.479564	0	0	-43.30074506	20.70977299	35.10599694	0	0	-101.2350351	2.69219327	-0.76093974	0
2.8	-12.34774984	0	0	0.94693319	0.55715937	-0.32903123	30.01159015	0	0	-42.74939402	22.09010101	37.79850009	0	0	-101.4212642	3.19890103	-1.19174204	0
2.81	-12.15852683	0	0	0.94635101	0.55949659	-0.32917583	27.18722922	0	0	-41.48679247	23.00287522	40.26009654	0	0	-100.8317511	3.43651966	-1.47112402	0
2.82	-12.06081559	0	0	0.94644881	0.56301331	-0.32944043	24.09424504	0	0	-39.5307368	23.38855116	42.48531554	0	0	-99.49018904	3.61342674	-1.51409818	0
2.83	-12.01762636	0	0	0.94718326	0.56765089	-0.32948916	20.76259695	0	0	-36.975199	23.10860498	44.39998016	0	0	-97.44444835	3.92039709	-1.37942702	0
2.84	-11.93505614	0	0	0.94850359	0.57337248	-0.32924743	17.20927163	0	0	-34.00492674	22.00615444	45.90300995	0	0	-94.75598321	4.400517	-1.19668835	0
2.85	-11.77849619	0	0	0.95037992	0.579996	-0.32890115	13.53302878	0	0	-30.85117537	20.0027231	46.9659972	0	0	-91.480293	4.96063815	-1.01875526	0
2.86	-11.6112013	0	0	0.95275478	0.58718493	-0.32864028	9.92412088	0	0	-27.72078425	17.11983292	47.6650789	0	0	-87.66568785	5.49406182	-0.78803596	0
2.87	-11.51937212	0	0	0.95548989	0.59460331	-0.3284666	6.56177614	0	0	-24.74755502	13.42067185	48.10188371	0	0	-83.35556727	5.97235172	-0.43962111	0
2.88	-11.53115751	0	0	0.95838731	0.60202923	-0.32825737	3.53679534	0	0	-22.01795665	9.00621893	48.31127746	0	0	-78.58079753	6.45322137	0.0123793	0
2.89	-11.61616774	0	0	0.96126697	0.60932753	-0.32799209	0.86489953	0	0	-19.61448163	4.07131386	48.25941665	0	0	-73.35240225	6.98785253	0.49729413	0
2.9	-11.73357123	0	0	0.96399615	0.61634565	-0.32786402	-1.4566616	0	0	-17.63261596	-1.06592324	47.90976396	0	0	-67.6754484	7.5386708	0.95368763	0
2.91	-11.86368291	0	0	0.96647218	0.62286737	-0.32813287	-3.41823059	0	0	-16.15971308	-6.03393704	47.26852391	0	0	-61.57783752	7.97470824	1.36179915	0
2.92	-11.99142162	0	0	0.96863588	0.6286727	-0.32887539	-5.01671717	0	0	-15.25146553	-10.52848371	46.35968232	0	0	-55.13184562	8.0961504	1.71480527	0
2.93	-12.07504214	0	0	0.97051119	0.63362333	-0.32992225	-6.27870221	0	0	-14.95788403	-14.38327287	45.17061589	0	0	-48.4488497	7.75454688	1.97892414	0
2.94	-12.05882678	0	0	0.97218971	0.63765068	-0.33101872	-7.23245635	0	0	-15.37624665	-17.55273238	43.67095388	0	0	-41.6761517	6.94512498	2.09971057	0
